<svg width="15" height="20" viewBox="0 0 15 20" fill="none" xmlns="http://www.w3.org/2000/svg">
<path d="M7.56915 9.18723C6.92953 9.18723 6.31611 8.93294 5.86383 8.4803C5.41154 8.02767 5.15746 7.41377 5.15746 6.77365C5.15746 6.13353 5.41154 5.51962 5.86383 5.06699C6.31611 4.61435 6.92953 4.36007 7.56915 4.36007C8.20877 4.36007 8.8222 4.61435 9.27448 5.06699C9.72676 5.51962 9.98085 6.13353 9.98085 6.77365C9.98085 7.0906 9.91847 7.40446 9.79727 7.69728C9.67607 7.99011 9.49842 8.25618 9.27448 8.4803C9.05053 8.70443 8.78467 8.88221 8.49207 9.0035C8.19947 9.1248 7.88586 9.18723 7.56915 9.18723ZM7.56915 0.015625C5.77821 0.015625 4.06062 0.727629 2.79424 1.995C1.52785 3.26238 0.816406 4.98131 0.816406 6.77365C0.816406 11.8422 7.56915 19.3243 7.56915 19.3243C7.56915 19.3243 14.3219 11.8422 14.3219 6.77365C14.3219 4.98131 13.6104 3.26238 12.3441 1.995C11.0777 0.727629 9.36009 0.015625 7.56915 0.015625Z" fill="white"/>
</svg>
