<svg width="16" height="14" viewBox="0 0 16 14" fill="none" xmlns="http://www.w3.org/2000/svg">
<path d="M4.50596 0.626953C4.14447 0.626913 3.79159 0.737206 3.49447 0.94309C3.19735 1.14897 2.97014 1.44064 2.84322 1.77911L2.09116 3.78355H0.599674C0.442702 3.78355 0.29216 3.8459 0.181164 3.9569C0.070169 4.06789 0.0078125 4.21843 0.0078125 4.37541C0.0078125 4.53238 0.070169 4.68292 0.181164 4.79391C0.29216 4.90491 0.442702 4.96727 0.599674 4.96727H1.64924L1.61452 5.05881C1.26141 5.17697 0.95439 5.40314 0.736869 5.70535C0.519348 6.00756 0.402338 6.3705 0.402386 6.74285V12.2669C0.402386 12.5808 0.5271 12.8819 0.749091 13.1039C0.971082 13.3259 1.27217 13.4506 1.58611 13.4506C1.90005 13.4506 2.20114 13.3259 2.42313 13.1039C2.64512 12.8819 2.76983 12.5808 2.76983 12.2669V11.4777H13.0288V12.2669C13.0288 12.5808 13.1535 12.8819 13.3755 13.1039C13.5974 13.3259 13.8985 13.4506 14.2125 13.4506C14.5264 13.4506 14.8275 13.3259 15.0495 13.1039C15.2715 12.8819 15.3962 12.5808 15.3962 12.2669V6.74285C15.3962 5.95923 14.8888 5.29476 14.1849 5.05881L14.1509 4.96727H15.1989C15.3559 4.96727 15.5064 4.90491 15.6174 4.79391C15.7284 4.68292 15.7908 4.53238 15.7908 4.37541C15.7908 4.21843 15.7284 4.06789 15.6174 3.9569C15.5064 3.8459 15.3559 3.78355 15.1989 3.78355H13.7074L12.9569 1.77911C12.83 1.44064 12.6028 1.14897 12.3057 0.94309C12.0086 0.737206 11.6557 0.626913 11.2942 0.626953H4.50596ZM14.2125 6.74285V10.294H11.6477V9.11029C11.6477 8.63938 11.4607 8.18775 11.1277 7.85477C10.7947 7.52178 10.3431 7.33471 9.87216 7.33471H5.92642C5.45551 7.33471 5.00388 7.52178 4.6709 7.85477C4.33791 8.18775 4.15084 8.63938 4.15084 9.11029V10.294H1.58611V6.74285C1.58611 6.58588 1.64846 6.43534 1.75946 6.32434C1.87046 6.21335 2.021 6.15099 2.17797 6.15099H13.6206C13.7776 6.15099 13.9281 6.21335 14.0391 6.32434C14.1501 6.43534 14.2125 6.58588 14.2125 6.74285ZM12.8867 4.96727H2.91188L3.9504 2.19499C3.99274 2.08191 4.06866 1.98448 4.16796 1.91579C4.26727 1.84709 4.38521 1.81041 4.50596 1.81068H11.2942C11.4147 1.81074 11.5323 1.84756 11.6313 1.91624C11.7303 1.98491 11.8059 2.08216 11.8482 2.19499L12.8867 4.96727ZM10.464 10.294H5.33456V9.11029C5.33456 8.95332 5.39692 8.80278 5.50791 8.69178C5.61891 8.58079 5.76945 8.51843 5.92642 8.51843H9.87216C10.0291 8.51843 10.1797 8.58079 10.2907 8.69178C10.4017 8.80278 10.464 8.95332 10.464 9.11029V10.294Z" fill="#B9E4C9"/>
</svg>
