<svg width="13" height="18" viewBox="0 0 13 18" fill="none" xmlns="http://www.w3.org/2000/svg">
<path fill-rule="evenodd" clip-rule="evenodd" d="M8.57806 17.0343C8.71092 17.2491 8.92336 17.4025 9.16899 17.4611C9.41461 17.5197 9.67344 17.4787 9.88894 17.3471C10.1044 17.2154 10.2591 17.0039 10.3191 16.7586C10.3791 16.5133 10.3396 16.2542 10.2092 16.038L8.02016 12.4865L7.56074 10.6276C7.53872 10.6533 7.51713 10.6792 7.49572 10.7054L6.01109 12.3022L6.19297 13.0372C6.2139 13.1539 6.25638 13.2656 6.31825 13.3666L8.57806 17.0343ZM1.27614 16.1863L2.69868 12.4184C2.74863 12.2853 2.82747 12.1649 2.92955 12.0659L5.15244 9.60501V5.56757C5.15304 5.26137 5.27494 4.96787 5.49146 4.75135C5.70798 4.53483 6.00148 4.41293 6.30769 4.41233C6.619 4.41233 6.75101 4.49845 7.004 4.62514L11.8084 7.39899C11.9052 7.45502 11.9899 7.52955 12.0579 7.61833C12.1258 7.70712 12.1756 7.80841 12.2044 7.91643C12.2331 8.02445 12.2404 8.13708 12.2256 8.24789C12.2109 8.3587 12.1744 8.46553 12.1184 8.56226C12.0624 8.659 11.9879 8.74375 11.8991 8.81168C11.8103 8.87961 11.709 8.92939 11.601 8.95817C11.493 8.98696 11.3803 8.99419 11.2695 8.97944C11.1587 8.9647 11.0519 8.92827 10.9551 8.87224L7.46286 6.85595V9.56497C7.46286 10.0632 7.39897 10.0443 7.12382 10.3811L4.44243 13.2651L3.0829 16.8665C2.99268 17.1061 2.811 17.3 2.57781 17.4056C2.34462 17.5112 2.07903 17.5199 1.83946 17.4296C1.5999 17.3394 1.40599 17.1577 1.30038 16.9245C1.19478 16.6914 1.18614 16.4258 1.27635 16.1862L1.27614 16.1863ZM5.86038 0.585938C5.58148 0.585937 5.30885 0.668641 5.07695 0.823589C4.84505 0.978536 4.66431 1.19877 4.55758 1.45644C4.45085 1.71411 4.42293 1.99764 4.47734 2.27118C4.53175 2.54472 4.66605 2.79598 4.86326 2.99319C5.06047 3.1904 5.31174 3.32471 5.58528 3.37912C5.85882 3.43353 6.14235 3.4056 6.40002 3.29887C6.65769 3.19214 6.87792 3.0114 7.03287 2.77951C7.18782 2.54761 7.27052 2.27497 7.27052 1.99607C7.27052 1.62208 7.12195 1.26341 6.8575 0.998957C6.59305 0.734505 6.23437 0.585938 5.86038 0.585938ZM4.65935 8.07604V5.60551L3.54116 6.75311L1.2038 7.41213C0.987096 7.47224 0.802986 7.61567 0.691675 7.81107C0.580363 8.00648 0.550894 8.23799 0.609704 8.45505C0.668513 8.67211 0.810821 8.85708 1.00555 8.96957C1.20028 9.08206 1.43161 9.11292 1.64902 9.05543L4.29893 8.33805C4.38884 8.31483 4.47062 8.2673 4.5353 8.20069L4.65935 8.07604Z" fill="#B9E4C9"/>
</svg>
