<svg width="21" height="20" viewBox="0 0 21 20" fill="none" xmlns="http://www.w3.org/2000/svg">
<path d="M20.7408 0.501953H6.72095C4.82199 0.501953 3.27683 2.70103 3.27683 5.40429C3.27683 5.40617 3.27789 5.40778 3.27792 5.4097C3.27947 8.01254 4.71582 10.1409 6.51941 10.2908V12.8868H3.73203V10.8959C3.73203 10.3051 3.2514 9.82443 2.66058 9.82443H0.892842L0.892842 9.30295C0.892842 9.16985 0.784849 9.06185 0.651743 9.06185C0.518638 9.06185 0.410645 9.16985 0.410645 9.30295L0.410645 18.9189C0.410645 19.052 0.518637 19.16 0.651743 19.16C0.784849 19.16 0.892841 19.052 0.892841 18.9189L0.892842 18.6493H2.66058C3.2514 18.6493 3.73203 18.1687 3.73203 17.5779V15.5659H6.51941V15.9793C6.51941 16.5702 7.00004 17.0508 7.59086 17.0508H9.0048C9.5953 17.0508 10.0759 16.5702 10.0759 15.9793V10.3054H15.8883C17.787 10.3054 19.3318 8.10723 19.3318 5.40554C19.3318 4.67656 19.2197 3.96907 19.01 3.32701C21.113 2.39581 20.9876 0.789667 20.9806 0.719504C20.9689 0.60171 20.8481 0.501953 20.7408 0.501953ZM17.7713 1.60918L17.7699 1.61028C17.7684 1.6115 17.7665 1.61169 17.765 1.61295C17.7637 1.61405 17.7632 1.6157 17.7619 1.6168C17.0962 2.12897 16.6591 2.71649 16.4098 3.12013C16.1888 3.47738 15.8099 3.69054 15.3964 3.69054H14.0045C13.6221 3.69054 13.2482 3.82364 12.9518 4.06474C12.9153 4.09441 11.8788 4.93692 11.9272 4.8976C11.7162 5.069 11.4509 5.16318 11.1797 5.16318H3.76819C3.83679 3.27991 4.85537 0.984459 6.72127 0.984459C7.15821 0.984446 16.2121 0.984211 18.8167 0.984144C18.4462 1.15147 18.0972 1.35992 17.7713 1.60918ZM14.9829 4.17274H15.3964C15.839 4.17274 16.2522 3.99906 16.5612 3.696C16.7997 4.07189 17.0097 4.65902 17.0097 5.4024C17.0097 6.74445 16.3348 7.63508 15.8883 7.63508C15.4419 7.63508 14.767 6.74445 14.767 5.4024C14.767 4.96251 14.8439 4.54278 14.9829 4.17274ZM3.24983 17.5779C3.24983 17.9028 2.9855 18.1671 2.66058 18.1671H0.892842V10.3066H2.66058C2.9855 10.3066 3.24983 10.571 3.24983 10.8959V17.5779ZM3.73203 15.0837V13.369H6.51941V15.0837H3.73203ZM9.59373 15.9793C9.59373 16.3043 9.3294 16.5686 9.0048 16.5686H7.59085C7.26594 16.5686 7.00161 16.3043 7.00161 15.9793C7.00161 13.9688 7.00161 12.2752 7.00161 10.3066H9.59373V15.9793ZM14.3994 9.82317H6.72127C5.14279 9.82317 3.85238 7.96941 3.76811 5.64539H11.1797C11.5611 5.64539 11.9347 5.51259 12.2311 5.27181L12.455 5.08981C12.4503 5.19513 12.4452 5.30057 12.4452 5.40555C12.4452 7.03815 13.0605 8.90473 14.3994 9.82317ZM15.8883 9.82317C14.2556 9.82317 12.9274 7.84133 12.9274 5.40554C12.9274 5.15522 12.9441 4.90882 12.9725 4.66926L13.2564 4.43863C13.467 4.26723 13.7326 4.17273 14.0044 4.17273H14.4691C14.3487 4.55306 14.2848 4.97122 14.2848 5.4024C14.2848 6.84868 15.0341 8.11727 15.8883 8.11727C16.7425 8.11727 17.4919 6.84868 17.4919 5.4024C17.4919 4.58877 17.2609 3.8189 16.8705 3.29471C17.0795 2.96987 17.4074 2.54246 17.8773 2.14432C18.4953 2.98541 18.8496 4.15571 18.8496 5.40554C18.8496 7.84133 17.5211 9.82317 15.8883 9.82317ZM18.8413 2.87562C18.6836 2.50098 18.4869 2.1595 18.2611 1.85295C18.9122 1.40395 19.6593 1.12271 20.4884 1.01468C20.4312 1.43433 20.1442 2.28845 18.8413 2.87562Z" fill="#284648"/>
<path d="M12.685 1.72848H10.2963C10.1632 1.72848 10.0552 1.83647 10.0552 1.96957C10.0552 2.10268 10.1632 2.21067 10.2963 2.21067H12.685C12.8181 2.21067 12.9261 2.10268 12.9261 1.96957C12.9261 1.83647 12.8181 1.72848 12.685 1.72848Z" fill="#284648"/>
<path d="M9.21827 1.72848H9.10651C8.9734 1.72848 8.86541 1.83647 8.86541 1.96957C8.86541 2.10268 8.9734 2.21067 9.10651 2.21067H9.21827C9.35137 2.21067 9.45937 2.10268 9.45937 1.96957C9.45937 1.83647 9.35138 1.72848 9.21827 1.72848Z" fill="#284648"/>
</svg>
