<svg width="21" height="21" viewBox="0 0 21 21" fill="none" xmlns="http://www.w3.org/2000/svg">
<path fill-rule="evenodd" clip-rule="evenodd" d="M11.3115 20.2584L11.2995 20.2604L11.2285 20.2954L11.2085 20.2994L11.1945 20.2954L11.1235 20.2594C11.1128 20.2568 11.1048 20.2588 11.0995 20.2654L11.0955 20.2754L11.0785 20.7034L11.0835 20.7234L11.0935 20.7364L11.1975 20.8104L11.2125 20.8144L11.2245 20.8104L11.3285 20.7364L11.3405 20.7204L11.3445 20.7034L11.3275 20.2764C11.3248 20.2658 11.3195 20.2598 11.3115 20.2584ZM11.5755 20.1454L11.5615 20.1474L11.3775 20.2404L11.3675 20.2504L11.3645 20.2614L11.3825 20.6914L11.3875 20.7034L11.3955 20.7114L11.5965 20.8034C11.6091 20.8068 11.6188 20.8041 11.6255 20.7954L11.6295 20.7814L11.5955 20.1674C11.5921 20.1548 11.5855 20.1474 11.5755 20.1454ZM10.8605 20.1474C10.856 20.1448 10.8508 20.1439 10.8458 20.145C10.8407 20.1461 10.8363 20.1491 10.8335 20.1534L10.8275 20.1674L10.7935 20.7814C10.7941 20.7934 10.7998 20.8014 10.8105 20.8054L10.8255 20.8034L11.0265 20.7104L11.0365 20.7024L11.0395 20.6914L11.0575 20.2614L11.0545 20.2494L11.0445 20.2394L10.8605 20.1474Z" fill="#284648"/>
<path fill-rule="evenodd" clip-rule="evenodd" d="M6.1609 0.184185C6.49205 0.0569183 6.85795 0.0531772 7.19163 0.173646C7.5253 0.294115 7.80443 0.530734 7.9779 0.840185L8.0379 0.957185L11.0579 7.57518H16.4149V6.07518C16.4148 5.44047 16.6561 4.82947 17.0899 4.36614C17.5237 3.90281 18.1176 3.62182 18.7509 3.58018L18.9149 3.57518H19.4149C19.6698 3.57547 19.9149 3.67306 20.1003 3.84803C20.2856 4.023 20.3971 4.26214 20.4121 4.51658C20.427 4.77102 20.3442 5.02156 20.1806 5.21702C20.017 5.41247 19.785 5.53808 19.5319 5.56818L19.4149 5.57518H18.9149C18.7979 5.57515 18.6845 5.61616 18.5946 5.69107C18.5047 5.76599 18.444 5.87007 18.4229 5.98518L18.4149 6.07518V8.57518C18.4148 10.8891 17.5234 13.1142 15.9259 14.7882C16.3312 14.9675 16.6816 15.2513 16.9411 15.6106C17.2006 15.9699 17.3599 16.3917 17.4028 16.8328C17.4456 17.274 17.3704 17.7185 17.1849 18.121C16.9993 18.5235 16.7101 18.8695 16.3469 19.1234C15.9836 19.3773 15.5594 19.5302 15.1177 19.5662C14.6759 19.6022 14.2326 19.5201 13.833 19.3284C13.4334 19.1367 13.092 18.8422 12.8437 18.4751C12.5954 18.1079 12.4491 17.6814 12.4199 17.2392L12.4149 17.0602C10.6 17.7021 8.6271 17.7453 6.7859 17.1832L6.4149 17.0602V17.0752C6.4148 17.5254 6.29314 17.9672 6.06277 18.354C5.83239 18.7407 5.50184 19.0581 5.10604 19.2726C4.71023 19.4871 4.26384 19.5908 3.81402 19.5726C3.36419 19.5544 2.92762 19.4151 2.5504 19.1694C2.17318 18.9237 1.8693 18.5807 1.67087 18.1766C1.47243 17.7725 1.38679 17.3223 1.423 16.8736C1.45921 16.4248 1.61591 15.9942 1.87657 15.6272C2.13723 15.2601 2.49216 14.9702 2.9039 14.7882C1.88278 13.7178 1.14125 12.4122 0.744957 10.9869C0.348661 9.56159 0.309813 8.06059 0.631849 6.61672C0.953886 5.17284 1.62688 3.83062 2.59126 2.70882C3.55565 1.58701 4.7817 0.719235 6.1609 0.184185ZM3.9149 16.5752C3.78229 16.5752 3.65512 16.6279 3.56135 16.7216C3.46758 16.8154 3.4149 16.9426 3.4149 17.0752C3.4149 17.2078 3.46758 17.335 3.56135 17.4287C3.65512 17.5225 3.78229 17.5752 3.9149 17.5752C4.04751 17.5752 4.17469 17.5225 4.26846 17.4287C4.36222 17.335 4.4149 17.2078 4.4149 17.0752C4.4149 16.9426 4.36222 16.8154 4.26846 16.7216C4.17469 16.6279 4.04751 16.5752 3.9149 16.5752ZM14.9149 16.5752C14.7823 16.5752 14.6551 16.6279 14.5613 16.7216C14.4676 16.8154 14.4149 16.9426 14.4149 17.0752C14.4149 17.2078 14.4676 17.335 14.5613 17.4287C14.6551 17.5225 14.7823 17.5752 14.9149 17.5752C15.0475 17.5752 15.1747 17.5225 15.2685 17.4287C15.3622 17.335 15.4149 17.2078 15.4149 17.0752C15.4149 16.9426 15.3622 16.8154 15.2685 16.7216C15.1747 16.6279 15.0475 16.5752 14.9149 16.5752ZM16.3429 9.57518H2.4869C2.72767 11.2409 3.56051 12.7641 4.83286 13.8657C6.10522 14.9674 7.73189 15.5738 9.4149 15.5738C11.0979 15.5738 12.7246 14.9674 13.9969 13.8657C15.2693 12.7641 16.1021 11.2409 16.3429 9.57518ZM6.4269 2.24518C5.42746 2.71698 4.55393 3.41873 3.8778 4.293C3.20168 5.16727 2.74218 6.18921 2.5369 7.27518L2.4869 7.57518H8.8589L6.4269 2.24518Z" fill="#284648"/>
</svg>
