<svg width="19" height="19" viewBox="0 0 19 19" fill="none" xmlns="http://www.w3.org/2000/svg">
<path d="M0.554199 3.12577C0.554199 1.77915 1.64585 0.6875 2.99246 0.6875H5.43073C5.76739 0.6875 6.0403 0.960412 6.0403 1.29707C6.0403 1.63372 5.76739 1.90663 5.43073 1.90663H2.99246C2.31916 1.90663 1.77333 2.45246 1.77333 3.12577V5.56403C1.77333 5.90069 1.50042 6.1736 1.16377 6.1736C0.827111 6.1736 0.554199 5.90069 0.554199 5.56403V3.12577Z" fill="#284648"/>
<path d="M13.3551 1.29707C13.3551 0.960412 13.628 0.6875 13.9647 0.6875H16.4029C17.7495 0.6875 18.8412 1.77915 18.8412 3.12577V5.56403C18.8412 5.90069 18.5683 6.1736 18.2316 6.1736C17.895 6.1736 17.6221 5.90069 17.6221 5.56403V3.12577C17.6221 2.45246 17.0762 1.90663 16.4029 1.90663H13.9647C13.628 1.90663 13.3551 1.63372 13.3551 1.29707Z" fill="#284648"/>
<path d="M1.16377 13.4884C1.50042 13.4884 1.77333 13.7613 1.77333 14.098V16.5362C1.77333 17.2095 2.31916 17.7554 2.99246 17.7554H5.43073C5.76739 17.7554 6.0403 18.0283 6.0403 18.3649C6.0403 18.7016 5.76739 18.9745 5.43073 18.9745H2.99246C1.64585 18.9745 0.554199 17.8828 0.554199 16.5362V14.098C0.554199 13.7613 0.827111 13.4884 1.16377 13.4884Z" fill="#284648"/>
<path d="M18.2316 13.4884C18.5683 13.4884 18.8412 13.7613 18.8412 14.098V16.5362C18.8412 17.8828 17.7495 18.9745 16.4029 18.9745H13.9647C13.628 18.9745 13.3551 18.7016 13.3551 18.3649C13.3551 18.0283 13.628 17.7554 13.9647 17.7554H16.4029C17.0762 17.7554 17.6221 17.2095 17.6221 16.5362V14.098C17.6221 13.7613 17.895 13.4884 18.2316 13.4884Z" fill="#284648"/>
<path d="M5.73551 5.25925C6.07218 5.25925 6.34508 5.53215 6.34508 5.86881V7.08795C6.34508 7.42461 6.07218 7.69751 5.73551 7.69751C5.39885 7.69751 5.12595 7.42461 5.12595 7.08795V5.86881C5.12595 5.53215 5.39885 5.25925 5.73551 5.25925Z" fill="#284648"/>
<path d="M14.2694 5.86881C14.2694 5.53215 13.9965 5.25925 13.6599 5.25925C13.3232 5.25925 13.0503 5.53215 13.0503 5.86881V7.08795C13.0503 7.42461 13.3232 7.69751 13.6599 7.69751C13.9965 7.69751 14.2694 7.42461 14.2694 7.08795V5.86881Z" fill="#284648"/>
<path d="M9.69769 5.25925C10.0344 5.25925 10.3073 5.53215 10.3073 5.86881V8.7008C10.3073 9.62435 9.78547 10.4686 8.95942 10.8816L8.75116 10.9858C8.45006 11.1363 8.0839 11.0143 7.93333 10.7132C7.7828 10.4121 7.90484 10.0459 8.20596 9.89533L8.41422 9.79122C8.82723 9.5847 9.08813 9.16257 9.08813 8.7008V5.86881C9.08813 5.53215 9.36103 5.25925 9.69769 5.25925Z" fill="#284648"/>
<path d="M6.74724 12.4207C6.49424 12.1986 6.10909 12.2237 5.88699 12.4767C5.66489 12.7297 5.68992 13.1148 5.94292 13.3369C8.02459 15.1644 11.3708 15.1644 13.4525 13.3369C13.7055 13.1148 13.7305 12.7297 13.5084 12.4767C13.2863 12.2237 12.9011 12.1986 12.6481 12.4207C11.0266 13.8443 8.36878 13.8443 6.74724 12.4207Z" fill="#284648"/>
</svg>
