<svg width="20" height="21" viewBox="0 0 20 21" fill="none" xmlns="http://www.w3.org/2000/svg">
<path fill-rule="evenodd" clip-rule="evenodd" d="M18.9429 20.7807H0.452174C0.344498 20.7807 0.257812 20.6937 0.257812 20.5864V1.07327C0.257812 0.96598 0.344498 0.878906 0.452174 0.878906H18.9429C19.0506 0.878906 19.1373 0.96598 19.1373 1.07327V20.5864C19.1373 20.6937 19.0502 20.7807 18.9429 20.7807ZM0.646535 20.392H18.7486V1.26763H0.646535V20.392Z" fill="#284648"/>
<path fill-rule="evenodd" clip-rule="evenodd" d="M18.9429 2.32923H0.452174C0.344498 2.32923 0.257812 2.24216 0.257812 2.13487C0.257812 2.02758 0.344498 1.94051 0.452174 1.94051H18.9429C19.0506 1.94051 19.1373 2.02758 19.1373 2.13487C19.1373 2.24216 19.0506 2.32923 18.9429 2.32923Z" fill="#284648"/>
<path fill-rule="evenodd" clip-rule="evenodd" d="M18.9429 3.65477H0.452174C0.344498 3.65477 0.257812 3.5677 0.257812 3.46041C0.257812 3.35313 0.344498 3.26605 0.452174 3.26605H18.9429C19.0506 3.26605 19.1373 3.35313 19.1373 3.46041C19.1373 3.5677 19.0506 3.65477 18.9429 3.65477Z" fill="#284648"/>
<path fill-rule="evenodd" clip-rule="evenodd" d="M14.5924 20.7807H1.74351C1.63622 20.7807 1.54915 20.6937 1.54915 20.5864V5.22016C1.54915 5.11287 1.63622 5.0258 1.74351 5.0258H14.5924C14.6996 5.0258 14.7863 5.11287 14.7863 5.22016V20.5864C14.7867 20.6937 14.6996 20.7807 14.5924 20.7807ZM1.93787 20.392H14.398V5.41452H1.93787V20.392Z" fill="#284648"/>
<path fill-rule="evenodd" clip-rule="evenodd" d="M13.287 19.4754H3.04884C2.94155 19.4754 2.85448 19.3883 2.85448 19.281V6.52549C2.85448 6.41821 2.94155 6.33113 3.04884 6.33113H13.287C13.3943 6.33113 13.4814 6.41821 13.4814 6.52549V19.281C13.4814 19.3883 13.3943 19.4754 13.287 19.4754ZM3.2432 19.0867H13.0927V6.71985H3.2432V19.0867Z" fill="#284648"/>
<path fill-rule="evenodd" clip-rule="evenodd" d="M8.8136 19.4754H7.52226C7.41497 19.4754 7.3279 19.3883 7.3279 19.281V6.52549C7.3279 6.41821 7.41497 6.33113 7.52226 6.33113H8.8136C8.92128 6.33113 9.00796 6.41821 9.00796 6.52549V19.281C9.00796 19.3883 8.92128 19.4754 8.8136 19.4754ZM7.71662 19.0867H8.61924V6.71985H7.71662V19.0867Z" fill="#284648"/>
<path fill-rule="evenodd" clip-rule="evenodd" d="M5.27117 14.2533C5.16388 14.2533 5.07681 14.1662 5.07681 14.0589V11.7476C5.07681 11.6403 5.16388 11.5532 5.27117 11.5532C5.37885 11.5532 5.46553 11.6403 5.46553 11.7476V14.0589C5.46553 14.1662 5.37885 14.2533 5.27117 14.2533Z" fill="#284648"/>
<path fill-rule="evenodd" clip-rule="evenodd" d="M6.25697 12.7579C6.21343 12.7579 6.16951 12.7431 6.13336 12.7132L5.27117 11.9999L4.40937 12.7132C4.32696 12.7816 4.20413 12.7699 4.13571 12.6875C4.0673 12.6047 4.07896 12.4823 4.16175 12.4135L5.14756 11.5979C5.21947 11.5385 5.32326 11.5385 5.39517 11.5979L6.38097 12.4135C6.46377 12.4823 6.47543 12.6047 6.40702 12.6875C6.36853 12.7338 6.31295 12.7579 6.25697 12.7579Z" fill="#284648"/>
<path fill-rule="evenodd" clip-rule="evenodd" d="M11.0647 14.2533C10.9574 14.2533 10.8703 14.1662 10.8703 14.0589V11.7476C10.8703 11.6399 10.9574 11.5532 11.0647 11.5532C11.172 11.5532 11.2591 11.6399 11.2591 11.7476V14.0589C11.2591 14.1662 11.172 14.2533 11.0647 14.2533Z" fill="#284648"/>
<path fill-rule="evenodd" clip-rule="evenodd" d="M11.0647 14.2533C11.0208 14.2533 10.9768 14.2385 10.9407 14.2086L9.95489 13.3927C9.87209 13.3243 9.86082 13.2018 9.92923 13.119C9.99765 13.0366 10.1201 13.0249 10.2029 13.0934L11.0647 13.8067L11.9265 13.0934C12.0093 13.0249 12.1317 13.0366 12.2002 13.119C12.2686 13.2018 12.2573 13.3243 12.1745 13.3927L11.1887 14.2086C11.1525 14.2385 11.1086 14.2533 11.0647 14.2533Z" fill="#284648"/>
<path fill-rule="evenodd" clip-rule="evenodd" d="M17.6267 12.3074C17.6267 12.3074 17.6263 12.3074 17.6259 12.3074H15.6291C15.5583 12.3074 15.493 12.2689 15.4588 12.2067C15.4246 12.1449 15.4269 12.0691 15.4646 12.0092L16.4843 10.3945C16.52 10.3381 16.5822 10.3039 16.6487 10.3039H16.6506C16.7179 10.3047 16.7801 10.34 16.8151 10.3976L17.7842 11.9987C17.8075 12.031 17.8211 12.0702 17.8211 12.113C17.8211 12.2203 17.734 12.3074 17.6267 12.3074ZM15.9816 11.9186H17.2811L16.6452 10.8679L15.9816 11.9186Z" fill="#284648"/>
<path fill-rule="evenodd" clip-rule="evenodd" d="M16.6487 15.5027C16.5822 15.5027 16.52 15.4684 16.4843 15.4121L15.4646 13.7973C15.4269 13.7375 15.4246 13.6617 15.4588 13.5999C15.493 13.5377 15.5583 13.4992 15.6291 13.4992H17.6259C17.6963 13.4992 17.7608 13.5369 17.7954 13.5983C17.8296 13.6593 17.8285 13.7344 17.7923 13.7942L16.8151 15.409C16.7801 15.4665 16.7179 15.5019 16.6506 15.5027C16.6499 15.5027 16.6495 15.5027 16.6487 15.5027ZM15.9816 13.8879L16.6452 14.9386L17.2811 13.8879H15.9816Z" fill="#284648"/>
</svg>
