<svg width="21" height="20" viewBox="0 0 21 20" fill="none" xmlns="http://www.w3.org/2000/svg">
<path d="M14.4976 11.4099H13.2336V7.9337C13.2336 7.84989 13.2003 7.76951 13.141 7.71024C13.0817 7.65097 13.0014 7.61768 12.9175 7.61768H11.9695V5.08952C11.9695 3.7485 11.4368 2.46241 10.4885 1.51416C9.54028 0.565921 8.25419 0.0332031 6.91317 0.0332031C5.57215 0.0332031 4.28606 0.565921 3.33781 1.51416C2.38957 2.46241 1.85685 3.7485 1.85685 5.08952V7.61768H0.908793C0.82498 7.61768 0.744599 7.65097 0.685333 7.71024C0.626068 7.76951 0.592773 7.84989 0.592773 7.9337V18.0463C0.592773 18.1301 0.626068 18.2105 0.685333 18.2698C0.744599 18.3291 0.82498 18.3624 0.908793 18.3624H10.0734C10.0734 18.6976 10.2065 19.0191 10.4436 19.2562C10.6807 19.4933 11.0022 19.6264 11.3374 19.6264H14.4976C14.8329 19.6264 15.1544 19.4933 15.3915 19.2562C15.6285 19.0191 15.7617 18.6976 15.7617 18.3624V12.674C15.7617 12.3387 15.6285 12.0172 15.3915 11.7802C15.1544 11.5431 14.8329 11.4099 14.4976 11.4099ZM10.0734 7.61768V6.66962H11.3374V7.61768H10.0734ZM9.44133 7.61768H4.38501V5.08952C4.38501 4.41901 4.65137 3.77596 5.12549 3.30184C5.59961 2.82772 6.24266 2.56136 6.91317 2.56136C7.58368 2.56136 8.22673 2.82772 8.70085 3.30184C9.17497 3.77596 9.44133 4.41901 9.44133 5.08952V7.61768ZM6.91317 0.665243C8.08618 0.666498 9.21078 1.13303 10.0402 1.96247C10.8697 2.79191 11.3362 3.91651 11.3374 5.08952V6.03758H10.0734V5.08952C10.0734 4.25138 9.74042 3.44758 9.14777 2.85492C8.55512 2.26227 7.75131 1.92932 6.91317 1.92932C6.07503 1.92932 5.27122 2.26227 4.67857 2.85492C4.08592 3.44758 3.75297 4.25138 3.75297 5.08952V6.03758H2.48889V5.08952C2.49015 3.91651 2.95668 2.79191 3.78612 1.96247C4.61556 1.13303 5.74016 0.666498 6.91317 0.665243ZM2.48889 6.66962H3.75297V7.61768H2.48889V6.66962ZM1.22481 17.7303V8.24972H12.6015V11.4099H11.9695V9.19778C11.9695 9.11397 11.9362 9.03358 11.8769 8.97432C11.8177 8.91505 11.7373 8.88176 11.6535 8.88176H2.17287C2.08906 8.88176 2.00868 8.91505 1.94941 8.97432C1.89015 9.03358 1.85685 9.11397 1.85685 9.19778V16.7823C1.85685 16.8661 1.89015 16.9465 1.94941 17.0057C2.00868 17.065 2.08906 17.0983 2.17287 17.0983H10.0734V17.7303H1.22481ZM10.0734 12.674V16.4662H2.48889V9.5138H11.3374V11.4099C11.0022 11.4099 10.6807 11.5431 10.4436 11.7802C10.2065 12.0172 10.0734 12.3387 10.0734 12.674ZM15.1297 18.3624C15.1297 18.53 15.0631 18.6907 14.9446 18.8093C14.826 18.9278 14.6653 18.9944 14.4976 18.9944H11.3374C11.1698 18.9944 11.0091 18.9278 10.8905 18.8093C10.772 18.6907 10.7054 18.53 10.7054 18.3624V12.674C10.7054 12.5064 10.772 12.3456 10.8905 12.2271C11.0091 12.1085 11.1698 12.042 11.3374 12.042H14.4976C14.6653 12.042 14.826 12.1085 14.9446 12.2271C15.0631 12.3456 15.1297 12.5064 15.1297 12.674V18.3624Z" fill="#284648"/>
<path d="M13.9626 14.3331L13.5445 14.8071C13.689 14.9345 13.7912 15.1028 13.8377 15.2897C13.8841 15.4766 13.8725 15.6732 13.8044 15.8534C13.7363 16.0335 13.615 16.1887 13.4566 16.2982C13.2981 16.4077 13.1101 16.4663 12.9175 16.4663C12.725 16.4663 12.5369 16.4077 12.3785 16.2982C12.2201 16.1887 12.0988 16.0335 12.0307 15.8534C11.9626 15.6732 11.951 15.4766 11.9974 15.2897C12.0439 15.1028 12.1461 14.9345 12.2906 14.8071L11.8725 14.3331C11.6317 14.5454 11.4614 14.8259 11.384 15.1374C11.3067 15.4489 11.326 15.7766 11.4395 16.0768C11.553 16.3771 11.7552 16.6356 12.0192 16.8181C12.2832 17.0006 12.5966 17.0983 12.9175 17.0983C13.2385 17.0983 13.5519 17.0006 13.8159 16.8181C14.0799 16.6356 14.2821 16.3771 14.3956 16.0768C14.5091 15.7766 14.5284 15.4489 14.4511 15.1374C14.3737 14.8259 14.2034 14.5454 13.9626 14.3331Z" fill="#284648"/>
<path d="M12.6015 13.9381H13.2336V15.2022H12.6015V13.9381Z" fill="#284648"/>
<path d="M6.91317 10.1458C6.41044 10.1463 5.92845 10.3463 5.57297 10.7018C5.21748 11.0572 5.01755 11.5392 5.01705 12.042C5.0167 12.3077 5.07287 12.5705 5.18184 12.8129C5.29081 13.0553 5.45008 13.2718 5.64909 13.4479V14.5701C5.64909 14.9054 5.78227 15.2269 6.01933 15.464C6.25639 15.701 6.57792 15.8342 6.91317 15.8342C7.24843 15.8342 7.56995 15.701 7.80701 15.464C8.04407 15.2269 8.17725 14.9054 8.17725 14.5701V13.4479C8.37626 13.2718 8.53553 13.0553 8.6445 12.8129C8.75347 12.5705 8.80964 12.3077 8.80929 12.042C8.80879 11.5392 8.60886 11.0572 8.25338 10.7018C7.89789 10.3463 7.4159 10.1463 6.91317 10.1458ZM7.67162 13.0469C7.63237 13.0763 7.60051 13.1145 7.57857 13.1584C7.55663 13.2023 7.54521 13.2507 7.54521 13.2997V14.5701C7.54521 14.7377 7.47862 14.8985 7.36009 15.017C7.24156 15.1356 7.0808 15.2022 6.91317 15.2022C6.74554 15.2022 6.58478 15.1356 6.46625 15.017C6.34772 14.8985 6.28113 14.7377 6.28113 14.5701V13.2991C6.28113 13.25 6.26971 13.2016 6.24777 13.1578C6.22583 13.1139 6.19397 13.0757 6.15472 13.0463C5.99801 12.9298 5.87069 12.7784 5.7829 12.604C5.69511 12.4297 5.64929 12.2372 5.64909 12.042C5.64909 11.7067 5.78227 11.3852 6.01933 11.1481C6.25639 10.9111 6.57792 10.7779 6.91317 10.7779C7.24843 10.7779 7.56995 10.9111 7.80701 11.1481C8.04407 11.3852 8.17725 11.7067 8.17725 12.042C8.17715 12.2373 8.13138 12.4299 8.04359 12.6044C7.95579 12.7789 7.82841 12.9304 7.67162 13.0469Z" fill="#284648"/>
<path d="M16.7098 9.82982C16.5223 9.82982 16.339 9.88542 16.1831 9.9896C16.0272 10.0938 15.9057 10.2418 15.8339 10.4151C15.7621 10.5883 15.7434 10.7789 15.7799 10.9628C15.8165 11.1467 15.9068 11.3157 16.0394 11.4483C16.172 11.5808 16.3409 11.6711 16.5248 11.7077C16.7087 11.7443 16.8994 11.7255 17.0726 11.6538C17.2458 11.582 17.3939 11.4605 17.4981 11.3046C17.6022 11.1487 17.6578 10.9654 17.6578 10.7779C17.6578 10.5264 17.558 10.2853 17.3802 10.1075C17.2024 9.9297 16.9612 9.82982 16.7098 9.82982ZM16.7098 11.0939C16.6473 11.0939 16.5862 11.0754 16.5342 11.0406C16.4822 11.0059 16.4417 10.9566 16.4178 10.8988C16.3939 10.8411 16.3876 10.7775 16.3998 10.7162C16.412 10.6549 16.4421 10.5986 16.4863 10.5544C16.5305 10.5102 16.5868 10.4801 16.6481 10.4679C16.7094 10.4557 16.773 10.462 16.8307 10.4859C16.8885 10.5098 16.9378 10.5503 16.9725 10.6023C17.0073 10.6543 17.0258 10.7154 17.0258 10.7779C17.0258 10.8617 16.9925 10.9421 16.9332 11.0013C16.874 11.0606 16.7936 11.0939 16.7098 11.0939Z" fill="#284648"/>
<path d="M16.7098 8.56574V9.19778C17.1287 9.19828 17.5303 9.36492 17.8265 9.66113C18.1227 9.95735 18.2894 10.359 18.2899 10.7779H18.9219C18.9213 10.1914 18.688 9.62911 18.2733 9.2144C17.8586 8.79969 17.2963 8.56641 16.7098 8.56574Z" fill="#284648"/>
<path d="M16.7098 7.30166V7.9337C17.4639 7.93454 18.1868 8.23446 18.72 8.76766C19.2532 9.30087 19.5531 10.0238 19.554 10.7779H20.186C20.1849 9.85626 19.8183 8.9727 19.1666 8.32102C18.515 7.66934 17.6314 7.30275 16.7098 7.30166Z" fill="#284648"/>
</svg>
