<svg width="24" height="24" viewBox="0 0 24 24" fill="none" xmlns="http://www.w3.org/2000/svg">
<circle opacity="0.3" cx="11.7598" cy="12.0586" r="11.5273" fill="#B9E4C9"/>
<path d="M11.7593 11.7695C11.3775 11.7695 11.0113 11.6177 10.7413 11.3475C10.4714 11.0774 10.3197 10.7109 10.3197 10.3288C10.3197 9.94673 10.4714 9.58029 10.7413 9.31011C11.0113 9.03993 11.3775 8.88814 11.7593 8.88814C12.1411 8.88814 12.5072 9.03993 12.7772 9.31011C13.0472 9.58029 13.1988 9.94673 13.1988 10.3288C13.1988 10.518 13.1616 10.7054 13.0892 10.8801C13.0169 11.0549 12.9109 11.2138 12.7772 11.3475C12.6435 11.4813 12.4848 11.5874 12.3102 11.6598C12.1355 11.7322 11.9483 11.7695 11.7593 11.7695ZM11.7593 6.29492C10.6902 6.29492 9.66501 6.71992 8.9091 7.47642C8.15318 8.23293 7.72852 9.25897 7.72852 10.3288C7.72852 13.3542 11.7593 17.8204 11.7593 17.8204C11.7593 17.8204 15.79 13.3542 15.79 10.3288C15.79 9.25897 15.3653 8.23293 14.6094 7.47642C13.8535 6.71992 12.8283 6.29492 11.7593 6.29492Z" fill="#B9E4C9"/>
</svg>
