<svg width="144" height="194" viewBox="0 0 144 194" fill="none" xmlns="http://www.w3.org/2000/svg">
<g filter="url(#filter0_d_116_5439)">
<path d="M123.975 177.883C123.975 182.301 127.556 185.883 131.975 185.883C136.393 185.883 139.975 182.301 139.975 177.883C139.975 173.464 136.393 169.883 131.975 169.883C127.556 169.883 123.975 173.464 123.975 177.883ZM4.06836 8C4.06836 12.4183 7.65008 16 12.0684 16C16.4866 16 20.0684 12.4183 20.0684 8C20.0684 3.58172 16.4866 0 12.0684 0C7.65008 0 4.06836 3.58172 4.06836 8ZM133.2 177.018L13.2938 7.13503L10.8429 8.86497L130.749 178.748L133.2 177.018Z" fill="white"/>
</g>
<defs>
<filter id="filter0_d_116_5439" x="0.0683594" y="0" width="143.906" height="193.883" filterUnits="userSpaceOnUse" color-interpolation-filters="sRGB">
<feFlood flood-opacity="0" result="BackgroundImageFix"/>
<feColorMatrix in="SourceAlpha" type="matrix" values="0 0 0 0 0 0 0 0 0 0 0 0 0 0 0 0 0 0 127 0" result="hardAlpha"/>
<feOffset dy="4"/>
<feGaussianBlur stdDeviation="2"/>
<feComposite in2="hardAlpha" operator="out"/>
<feColorMatrix type="matrix" values="0 0 0 0 0 0 0 0 0 0 0 0 0 0 0 0 0 0 0.25 0"/>
<feBlend mode="normal" in2="BackgroundImageFix" result="effect1_dropShadow_116_5439"/>
<feBlend mode="normal" in="SourceGraphic" in2="effect1_dropShadow_116_5439" result="shape"/>
</filter>
</defs>
</svg>
