<svg width="214" height="98" viewBox="0 0 214 98" fill="none" xmlns="http://www.w3.org/2000/svg">
<path d="M97.1003 13.9004H114.224C119.671 13.9004 123.717 15.3499 126.377 18.2329C129.037 21.116 130.359 25.353 130.359 30.928V65.7479C130.359 71.3229 129.037 75.5599 126.377 78.443C123.717 81.326 119.671 82.7755 114.224 82.7755H97.1003V13.9004ZM107.916 23.7442V72.9317H114.016C115.721 72.9317 117.059 72.4379 118.046 71.4503C119.034 70.4627 119.528 68.7265 119.528 66.2417V30.4342C119.528 27.9494 119.034 26.1972 118.046 25.2256C117.059 24.2539 115.721 23.7442 114.016 23.7442H107.916Z" fill="white"/>
<path d="M134.47 30.437C134.47 24.862 135.872 20.5772 138.707 17.5985C141.527 14.6199 145.588 13.1226 150.909 13.1226C156.229 13.1226 160.29 14.6199 163.11 17.5985C165.929 20.5772 167.347 24.862 167.347 30.437V66.2444C167.347 71.8194 165.929 76.1042 163.11 79.0828C160.29 82.0615 156.229 83.5588 150.909 83.5588C145.588 83.5588 141.527 82.0615 138.707 79.0828C135.888 76.1042 134.47 71.8194 134.47 66.2444V30.437ZM145.286 66.9293C145.286 69.4142 145.795 71.1823 146.815 72.1858C147.834 73.2052 149.188 73.7149 150.893 73.7149C152.597 73.7149 153.951 73.2052 154.97 72.1858C155.99 71.1663 156.499 69.4142 156.499 66.9293V29.752C156.499 27.2672 155.99 25.4991 154.97 24.4956C153.951 23.4762 152.597 22.9665 150.893 22.9665C149.188 22.9665 147.818 23.4762 146.815 24.4956C145.811 25.515 145.286 27.2672 145.286 29.752V66.9293Z" fill="white"/>
<path d="M171.073 30.437C171.073 24.862 172.395 20.5772 175.055 17.5985C177.715 14.6199 181.697 13.1226 187.001 13.1226C192.305 13.1226 196.303 14.6199 198.948 17.5985C201.608 20.5772 202.93 24.862 202.93 30.437V33.097H192.704V29.752C192.704 27.2672 192.226 25.4991 191.27 24.4956C190.314 23.4762 188.992 22.9665 187.288 22.9665C185.584 22.9665 184.246 23.4762 183.306 24.4956C182.35 25.515 181.872 27.2672 181.872 29.752C181.872 32.1095 182.398 34.1961 183.449 35.996C184.5 37.796 185.807 39.5003 187.383 41.1091C188.96 42.7179 190.649 44.3267 192.449 45.9355C194.249 47.5443 195.937 49.2964 197.514 51.1919C199.091 53.0874 200.397 55.2537 201.448 57.6908C202.5 60.1119 203.025 62.9631 203.025 66.2444C203.025 71.8194 201.671 76.1042 198.948 79.0828C196.224 82.0615 192.21 83.5588 186.906 83.5588C181.601 83.5588 177.572 82.0615 174.848 79.0828C172.124 76.1042 170.77 71.8194 170.77 66.2444V61.5295H180.996V66.9453C180.996 69.4301 181.506 71.1823 182.525 72.1539C183.545 73.1415 184.899 73.6353 186.603 73.6353C188.307 73.6353 189.661 73.1415 190.681 72.1539C191.7 71.1663 192.21 69.4301 192.21 66.9453C192.21 64.5878 191.684 62.5012 190.633 60.7013C189.582 58.9013 188.275 57.197 186.699 55.5882C185.122 53.9794 183.433 52.3706 181.633 50.7618C179.833 49.153 178.145 47.4009 176.568 45.5054C174.991 43.6099 173.685 41.4436 172.634 39.0065C171.582 36.5854 171.057 33.7342 171.057 30.4529L171.073 30.437Z" fill="white"/>
<path d="M97.7882 93.9184H96.6573V96.5307H96.2591V93.9184H95.1281V93.5679H97.7723V93.9184H97.7882Z" fill="white"/>
<path d="M99.7977 96.5439V97.627H99.3995V96.5439L98.0774 93.5493H98.5075L99.6066 96.0819L100.737 93.5493H101.136L99.8136 96.5439H99.7977ZM98.4278 96.3527H100.753V96.6394H98.4278V96.3527Z" fill="white"/>
<path d="M104.223 93.7245C104.446 93.8519 104.621 94.0271 104.748 94.2501C104.876 94.4731 104.939 94.7439 104.939 95.0306C104.939 95.3174 104.876 95.5881 104.748 95.8271C104.621 96.0501 104.446 96.2412 104.223 96.3527C104 96.4642 103.745 96.5439 103.458 96.5439C103.219 96.5439 102.996 96.4961 102.805 96.4005C102.614 96.3049 102.455 96.1616 102.327 95.9704V97.627H101.929V93.5652H102.311V94.1546C102.439 93.9634 102.598 93.8041 102.789 93.7086C102.98 93.613 103.203 93.5493 103.458 93.5493C103.729 93.5493 103.984 93.613 104.223 93.7404V93.7245ZM104 96.0501C104.175 95.9545 104.302 95.8111 104.398 95.6359C104.493 95.4607 104.541 95.2536 104.541 95.0306C104.541 94.8076 104.493 94.6006 104.398 94.4254C104.302 94.2501 104.175 94.1068 104 94.0112C103.824 93.9156 103.649 93.8679 103.442 93.8679C103.235 93.8679 103.044 93.9156 102.869 94.0112C102.709 94.1068 102.566 94.2501 102.47 94.4254C102.375 94.6006 102.327 94.8076 102.327 95.0306C102.327 95.2536 102.375 95.4607 102.47 95.6359C102.566 95.8111 102.693 95.9545 102.869 96.0501C103.044 96.1456 103.219 96.1934 103.442 96.1934C103.665 96.1934 103.84 96.1456 104 96.0501Z" fill="white"/>
<path d="M106.502 95.0625H107.808V95.3492H106.502V96.512H106.104V95.3492H105.706V95.0625H106.104V93.5493H108.206V93.8997H106.502V95.0625Z" fill="white"/>
<path d="M111.153 94.8582C111.344 95.0174 111.44 95.2564 111.44 95.559C111.44 95.8617 111.328 96.1165 111.121 96.2917C110.914 96.4669 110.611 96.5466 110.213 96.5466H109.035V93.5679H109.433V94.6033H110.277C110.643 94.6033 110.93 94.6989 111.137 94.8582H111.153ZM110.834 96.0687C110.978 95.9572 111.042 95.782 111.042 95.559C111.042 95.336 110.978 95.1767 110.834 95.0812C110.691 94.9697 110.484 94.9219 110.213 94.9219H109.465V96.228H110.213C110.484 96.228 110.691 96.1802 110.834 96.0687ZM111.949 93.5679H112.348V96.5307H111.949V93.5679Z" fill="white"/>
<path d="M113.682 93.5493H114.081V94.8714H115.944V93.5493H116.343V96.512H115.944V95.2059H114.081V96.512H113.682V93.5493Z" fill="white"/>
<path d="M121.936 96.544V97.6271H121.538V96.544L120.216 93.5494H120.646L121.745 96.082L122.876 93.5494H123.274L121.952 96.544H121.936Z" fill="white"/>
<path d="M124.487 93.5487V95.9061L126.463 93.5487H126.813V96.5114H126.415V94.1539L124.44 96.5114H124.073V93.5487H124.487ZM124.822 92.9274C124.679 92.8 124.599 92.6248 124.583 92.3859H124.87C124.87 92.5292 124.933 92.6567 125.029 92.7363C125.125 92.8319 125.268 92.8637 125.427 92.8637C125.586 92.8637 125.714 92.8159 125.825 92.7363C125.921 92.6407 125.985 92.5292 125.985 92.3859H126.271C126.271 92.6248 126.192 92.8 126.032 92.9274C125.873 93.0549 125.682 93.1186 125.427 93.1186C125.172 93.1186 124.965 93.0549 124.822 92.9274Z" fill="white"/>
<path d="M132.275 95.2027H131.59V96.5247H131.191V93.562H131.59V94.8682H132.275L133.326 93.562H133.756L132.593 94.9956L133.852 96.5247H133.374L132.275 95.2027Z" fill="white"/>
<path d="M137.164 95.1556H134.679C134.695 95.4583 134.823 95.7131 135.03 95.9043C135.237 96.0954 135.508 96.191 135.842 96.191C136.033 96.191 136.193 96.1591 136.352 96.0954C136.511 96.0317 136.639 95.9361 136.75 95.8087L136.973 96.0636C136.846 96.2229 136.67 96.3343 136.479 96.4299C136.288 96.5096 136.065 96.5573 135.826 96.5573C135.524 96.5573 135.253 96.4936 135.014 96.3662C134.775 96.2388 134.6 96.0636 134.456 95.8246C134.329 95.6016 134.265 95.3308 134.265 95.0441C134.265 94.7574 134.329 94.4866 134.456 94.2636C134.584 94.0406 134.759 93.8495 134.982 93.7221C135.205 93.5946 135.444 93.5309 135.731 93.5309C136.017 93.5309 136.256 93.5946 136.463 93.7221C136.67 93.8495 136.846 94.0247 136.973 94.2477C137.1 94.4707 137.164 94.7415 137.164 95.0282V95.1556ZM135.014 94.1362C134.823 94.3114 134.711 94.5503 134.679 94.853H136.782C136.75 94.5663 136.639 94.3273 136.447 94.1362C136.256 93.9451 136.017 93.8654 135.715 93.8654C135.412 93.8654 135.189 93.961 134.998 94.1362H135.014Z" fill="white"/>
<path d="M142.36 93.5496V96.5123H138.266V93.5496H138.664V96.1619H140.114V93.5496H140.512V96.1619H141.945V93.5496H142.36Z" fill="white"/>
<path d="M146.292 95.1556H143.807C143.823 95.4583 143.95 95.7131 144.158 95.9043C144.365 96.0954 144.635 96.191 144.97 96.191C145.161 96.191 145.32 96.1591 145.48 96.0954C145.639 96.0317 145.766 95.9361 145.878 95.8087L146.101 96.0636C145.973 96.2229 145.798 96.3343 145.607 96.4299C145.416 96.5096 145.193 96.5573 144.954 96.5573C144.651 96.5573 144.381 96.4936 144.142 96.3662C143.903 96.2388 143.727 96.0636 143.584 95.8246C143.457 95.6016 143.393 95.3308 143.393 95.0441C143.393 94.7574 143.457 94.4866 143.584 94.2636C143.712 94.0406 143.887 93.8495 144.11 93.7221C144.333 93.5946 144.572 93.5309 144.858 93.5309C145.145 93.5309 145.384 93.5946 145.591 93.7221C145.798 93.8495 145.973 94.0247 146.101 94.2477C146.228 94.4707 146.292 94.7415 146.292 95.0282V95.1556ZM144.142 94.1362C143.95 94.3114 143.839 94.5503 143.807 94.853H145.91C145.878 94.5663 145.766 94.3273 145.575 94.1362C145.384 93.9451 145.145 93.8654 144.842 93.8654C144.54 93.8654 144.317 93.961 144.126 94.1362H144.142Z" fill="white"/>
<path d="M147.394 93.5496H147.792V94.8717H149.656V93.5496H150.054V96.5123H149.656V95.2062H147.792V96.5123H147.394V93.5496Z" fill="white"/>
<path d="M151.387 92.8141C151.387 92.8141 151.307 92.6867 151.307 92.6071C151.307 92.5274 151.339 92.4637 151.387 92.4159C151.451 92.3522 151.515 92.3363 151.594 92.3363C151.674 92.3363 151.753 92.3681 151.801 92.4159C151.849 92.4637 151.881 92.5433 151.881 92.6071C151.881 92.6867 151.849 92.7663 151.801 92.8141C151.738 92.8778 151.674 92.8938 151.594 92.8938C151.515 92.8938 151.435 92.8619 151.387 92.8141ZM151.387 93.5468H151.785V96.5096H151.387V93.5468Z" fill="white"/>
<path d="M156.26 92.3361H156.627V97.6244H156.26V92.3361Z" fill="white"/>
<path d="M163.687 95.2025H163.049V96.5246H162.651V95.2025H162.014L161.106 96.5246H160.628L161.695 94.9954L160.708 93.5619H161.138L162.014 94.868H162.651V93.5619H163.049V94.868H163.687L164.563 93.5619H164.993L164.005 95.0114L165.072 96.5405H164.594L163.687 95.2184V95.2025Z" fill="white"/>
<path d="M166.344 93.5494V95.9068L168.319 93.5494H168.669V96.5121H168.271V94.1547L166.296 96.5121H165.929V93.5494H166.344Z" fill="white"/>
<path d="M172.46 93.5467V96.5094H172.062V93.8971H170.644L170.612 94.6298C170.581 95.251 170.517 95.7289 170.405 96.0474C170.294 96.366 170.087 96.5412 169.8 96.5412C169.72 96.5412 169.625 96.5412 169.513 96.4935L169.545 96.143C169.545 96.143 169.657 96.159 169.689 96.159C169.848 96.159 169.959 96.0952 170.039 95.9519C170.119 95.8085 170.166 95.6333 170.198 95.4262C170.23 95.2192 170.246 94.9324 170.262 94.5979L170.31 93.5307H172.476L172.46 93.5467Z" fill="white"/>
<path d="M174.266 96.3536C174.043 96.2262 173.851 96.0509 173.724 95.812C173.597 95.589 173.533 95.3182 173.533 95.0315C173.533 94.7448 173.597 94.474 173.724 94.251C173.851 94.028 174.043 93.8369 174.266 93.7094C174.489 93.582 174.759 93.5183 175.046 93.5183C175.333 93.5183 175.588 93.582 175.827 93.7094C176.05 93.8369 176.241 94.0121 176.368 94.251C176.496 94.474 176.559 94.7448 176.559 95.0315C176.559 95.3182 176.496 95.5731 176.368 95.812C176.241 96.035 176.065 96.2262 175.827 96.3536C175.604 96.481 175.333 96.5447 175.046 96.5447C174.759 96.5447 174.504 96.481 174.266 96.3536ZM175.604 96.0509C175.763 95.9554 175.906 95.812 176.002 95.6368C176.097 95.4616 176.145 95.2545 176.145 95.0315C176.145 94.8085 176.097 94.6014 176.002 94.4262C175.906 94.251 175.779 94.1077 175.604 94.0121C175.428 93.9165 175.253 93.8687 175.03 93.8687C174.807 93.8687 174.632 93.9165 174.457 94.0121C174.281 94.1077 174.154 94.251 174.059 94.4262C173.963 94.6014 173.915 94.8085 173.915 95.0315C173.915 95.2545 173.963 95.4616 174.059 95.6368C174.154 95.812 174.281 95.9554 174.457 96.0509C174.616 96.1465 174.807 96.1943 175.03 96.1943C175.253 96.1943 175.428 96.1465 175.604 96.0509Z" fill="white"/>
<path d="M178.004 93.5487V95.9061L179.979 93.5487H180.329V96.5114H179.931V94.1539L177.956 96.5114H177.59V93.5487H178.004ZM178.338 92.9274C178.195 92.8 178.115 92.6248 178.099 92.3859H178.386C178.386 92.5292 178.45 92.6567 178.545 92.7363C178.641 92.8319 178.784 92.8637 178.944 92.8637C179.103 92.8637 179.23 92.8159 179.342 92.7363C179.437 92.6407 179.501 92.5292 179.501 92.3859H179.788C179.788 92.6248 179.708 92.8 179.549 92.9274C179.39 93.0549 179.198 93.1186 178.944 93.1186C178.689 93.1186 178.482 93.0549 178.338 92.9274Z" fill="white"/>
<path d="M185.791 95.2086H185.106V96.5307H184.708V93.568H185.106V94.8741H185.791L186.842 93.568H187.272L186.109 95.0015L187.368 96.5307H186.89L185.791 95.2086Z" fill="white"/>
<path d="M188.545 96.3535C188.322 96.2261 188.131 96.0508 188.004 95.8119C187.876 95.5889 187.813 95.3181 187.813 95.0314C187.813 94.7447 187.876 94.4739 188.004 94.2509C188.131 94.0279 188.322 93.8368 188.545 93.7093C188.768 93.5819 189.039 93.5182 189.326 93.5182C189.612 93.5182 189.867 93.5819 190.106 93.7093C190.329 93.8368 190.52 94.012 190.648 94.2509C190.775 94.4739 190.839 94.7447 190.839 95.0314C190.839 95.3181 190.775 95.573 190.648 95.8119C190.52 96.0349 190.345 96.2261 190.106 96.3535C189.883 96.4809 189.612 96.5446 189.326 96.5446C189.039 96.5446 188.784 96.4809 188.545 96.3535ZM189.883 96.0508C190.043 95.9553 190.186 95.8119 190.281 95.6367C190.377 95.4615 190.425 95.2544 190.425 95.0314C190.425 94.8084 190.377 94.6013 190.281 94.4261C190.186 94.2509 190.058 94.1075 189.883 94.012C189.708 93.9164 189.533 93.8686 189.31 93.8686C189.087 93.8686 188.912 93.9164 188.736 94.012C188.561 94.1075 188.434 94.2509 188.338 94.4261C188.243 94.6013 188.195 94.8084 188.195 95.0314C188.195 95.2544 188.243 95.4615 188.338 95.6367C188.434 95.8119 188.561 95.9553 188.736 96.0508C188.896 96.1464 189.087 96.1942 189.31 96.1942C189.533 96.1942 189.708 96.1464 189.883 96.0508Z" fill="white"/>
<path d="M195.204 93.5493V96.512H194.838V94.1705L193.643 96.1616H193.468L192.273 94.1705V96.5279H191.907V93.5652H192.321L193.579 95.6997L194.853 93.5652H195.22L195.204 93.5493Z" fill="white"/>
<path d="M199.221 93.5493V96.512H198.823V93.8997H196.959V96.512H196.561V93.5493H199.221Z" fill="white"/>
<path d="M202.98 93.5528V96.5155H202.581V93.9032H201.164L201.132 94.6359C201.1 95.2571 201.036 95.735 200.925 96.0536C200.813 96.3721 200.606 96.5474 200.319 96.5474C200.24 96.5474 200.144 96.5474 200.033 96.4996L200.065 96.1491C200.065 96.1491 200.176 96.1651 200.208 96.1651C200.367 96.1651 200.479 96.1014 200.558 95.958C200.638 95.8146 200.686 95.6394 200.718 95.4324C200.749 95.2253 200.765 94.9386 200.781 94.6041L200.829 93.5369H202.995L202.98 93.5528Z" fill="white"/>
<path d="M206.926 95.1616H204.441C204.457 95.4642 204.585 95.7191 204.792 95.9102C204.999 96.1014 205.27 96.1969 205.604 96.1969C205.795 96.1969 205.955 96.1651 206.114 96.1014C206.273 96.0376 206.401 95.9421 206.512 95.8146L206.735 96.0695C206.608 96.2288 206.433 96.3403 206.241 96.4359C206.05 96.5155 205.827 96.5633 205.588 96.5633C205.286 96.5633 205.015 96.4996 204.776 96.3721C204.537 96.2447 204.362 96.0695 204.218 95.8306C204.091 95.6076 204.027 95.3368 204.027 95.0501C204.027 94.7634 204.091 94.4926 204.218 94.2696C204.346 94.0466 204.521 93.8554 204.744 93.728C204.967 93.6006 205.206 93.5369 205.493 93.5369C205.779 93.5369 206.018 93.6006 206.225 93.728C206.433 93.8554 206.608 94.0306 206.735 94.2536C206.863 94.4766 206.926 94.7474 206.926 95.0341V95.1616ZM204.776 94.1421C204.585 94.3174 204.473 94.5563 204.441 94.8589H206.544C206.512 94.5722 206.401 94.3333 206.21 94.1421C206.018 93.951 205.779 93.8714 205.477 93.8714C205.174 93.8714 204.951 93.9669 204.76 94.1421H204.776Z" fill="white"/>
<path d="M209.093 95.2086H208.408V96.5307H208.009V93.568H208.408V94.8741H209.093L210.144 93.568H210.574L209.411 95.0015L210.67 96.5307H210.192L209.093 95.2086Z" fill="white"/>
<path d="M211.847 96.3535C211.608 96.2261 211.433 96.0508 211.305 95.8119C211.178 95.573 211.114 95.3181 211.114 95.0314C211.114 94.7447 211.178 94.4739 211.305 94.2509C211.433 94.0279 211.624 93.8368 211.847 93.7093C212.086 93.5819 212.341 93.5182 212.627 93.5182C212.882 93.5182 213.105 93.566 213.312 93.6615C213.519 93.7571 213.679 93.9005 213.79 94.0916L213.488 94.2987C213.392 94.1553 213.265 94.0438 213.121 93.9642C212.978 93.8846 212.803 93.8527 212.627 93.8527C212.42 93.8527 212.213 93.9005 212.054 93.996C211.895 94.0916 211.751 94.235 211.656 94.4102C211.56 94.5854 211.512 94.7925 211.512 95.0155C211.512 95.2385 211.56 95.4455 211.656 95.6208C211.751 95.796 211.879 95.9234 212.054 96.019C212.229 96.1146 212.42 96.1623 212.627 96.1623C212.803 96.1623 212.962 96.1305 213.121 96.0508C213.265 95.9871 213.392 95.8756 213.488 95.7163L213.79 95.9234C213.679 96.1145 213.519 96.2579 213.312 96.3535C213.105 96.4491 212.882 96.4968 212.627 96.4968C212.341 96.4968 212.07 96.4331 211.847 96.3057V96.3535Z" fill="white"/>
<path d="M30.2691 60.5262V13.0909H58.2237C59.0679 13.059 61.9829 13.0909 64.5951 15.1775C68.2109 18.0765 68.2109 22.5047 68.195 23.0622V52.6734C68.1313 53.199 67.6853 56.2573 64.9137 58.2165C62.843 59.682 60.6608 59.682 59.9599 59.6501C59.9599 48.8187 59.9758 37.9872 59.9918 27.1558C59.9918 26.7895 59.9281 24.3842 57.9051 22.648C56.0096 21.0074 53.7796 21.1826 53.3974 21.2304H38.5519C38.5519 37.2545 38.5838 53.2787 38.5997 69.3028C38.0263 69.271 34.4901 68.9683 32.1327 65.926C30.4124 63.7278 30.3009 61.3385 30.3009 60.5421" fill="#B9E4C9"/>
<path d="M54.3839 35.3265V82.7618H26.4292C25.585 82.7937 22.6701 82.7618 20.0578 80.6752C16.442 77.7762 16.442 73.348 16.4579 72.7905V43.1793C16.5216 42.6536 16.9676 39.5953 19.7392 37.6361C21.8099 36.1707 23.9921 36.1707 24.693 36.2026C24.693 47.034 24.6771 57.8654 24.6771 68.6969C24.6771 69.0632 24.7408 71.4684 26.7637 73.2046C28.6592 74.8453 30.8892 74.6701 31.2715 74.6223H46.1169C46.1169 58.5981 46.0851 42.574 46.0691 26.5498C46.6426 26.5817 50.1787 26.8843 52.5361 29.9267C54.2564 32.1248 54.3679 34.5141 54.3679 35.3106" fill="#B9E4C9"/>
<path d="M70.1523 95.4753H12.7776C5.84868 95.4753 0.209961 89.8366 0.209961 82.9076V12.5989C0.209961 5.66997 5.84868 0.03125 12.7776 0.03125H70.1523C77.0813 0.03125 82.72 5.66997 82.72 12.5989V82.9236C82.72 89.8525 77.0813 95.4912 70.1523 95.4912V95.4753ZM12.7776 6.40268C9.36889 6.40268 6.58139 9.17425 6.58139 12.5989V82.9236C6.58139 86.3323 9.35296 89.1198 12.7776 89.1198H70.1523C73.5611 89.1198 76.3485 86.3482 76.3485 82.9236V12.5989C76.3485 9.19018 73.577 6.40268 70.1523 6.40268H12.7776Z" fill="#B9E4C9"/>
</svg>
