<svg width="35" height="34" viewBox="0 0 35 34" fill="none" xmlns="http://www.w3.org/2000/svg">
<circle cx="17.4999" cy="17.3304" r="16.6478" fill="#B9E4C9"/>
<path d="M23.5929 17.3304C23.5933 17.4912 23.5521 17.6493 23.4733 17.7894C23.3945 17.9295 23.2807 18.0469 23.1431 18.13L14.6157 23.3466C14.4719 23.4346 14.3072 23.4827 14.1387 23.4858C13.9701 23.489 13.8038 23.447 13.6569 23.3644C13.5113 23.283 13.3901 23.1643 13.3056 23.0206C13.2212 22.8768 13.1765 22.7132 13.1763 22.5464V12.1144C13.1765 11.9476 13.2212 11.784 13.3056 11.6402C13.3901 11.4965 13.5113 11.3778 13.6569 11.2964C13.8038 11.2138 13.9701 11.1718 14.1387 11.175C14.3072 11.1781 14.4719 11.2261 14.6157 11.3142L23.1431 16.5308C23.2807 16.6139 23.3945 16.7313 23.4733 16.8714C23.5521 17.0115 23.5933 17.1696 23.5929 17.3304Z" fill="#284648"/>
</svg>
