<svg width="265" height="185" viewBox="0 0 265 185" fill="none" xmlns="http://www.w3.org/2000/svg">
<g filter="url(#filter0_dddd_116_5457)">
<path d="M125.582 69.903H137.52C141.317 69.903 144.138 70.9135 145.992 72.9233C147.847 74.9332 148.768 77.887 148.768 81.7735V106.048C148.768 109.934 147.847 112.888 145.992 114.898C144.138 116.908 141.317 117.918 137.52 117.918H125.582V69.903ZM133.122 76.7654V111.056H137.375C138.563 111.056 139.496 110.711 140.185 110.023C140.873 109.334 141.217 108.124 141.217 106.392V81.4292C141.217 79.697 140.873 78.4755 140.185 77.7981C139.496 77.1208 138.563 76.7654 137.375 76.7654H133.122Z" fill="white"/>
<path d="M151.634 81.4312C151.634 77.5446 152.611 74.5576 154.588 72.4811C156.553 70.4046 159.385 69.3608 163.094 69.3608C166.803 69.3608 169.634 70.4046 171.6 72.4811C173.565 74.5576 174.553 77.5446 174.553 81.4312V106.394C174.553 110.28 173.565 113.267 171.6 115.344C169.634 117.42 166.803 118.464 163.094 118.464C159.385 118.464 156.553 117.42 154.588 115.344C152.622 113.267 151.634 110.28 151.634 106.394V81.4312ZM159.174 106.871C159.174 108.603 159.529 109.836 160.24 110.536C160.951 111.246 161.895 111.602 163.083 111.602C164.271 111.602 165.215 111.246 165.925 110.536C166.636 109.825 166.991 108.603 166.991 106.871V80.9537C166.991 79.2214 166.636 77.9888 165.925 77.2892C165.215 76.5786 164.271 76.2232 163.083 76.2232C161.895 76.2232 160.94 76.5786 160.24 77.2892C159.54 77.9999 159.174 79.2214 159.174 80.9537V106.871Z" fill="white"/>
<path d="M177.151 81.4312C177.151 77.5446 178.073 74.5576 179.927 72.4811C181.781 70.4046 184.557 69.3608 188.255 69.3608C191.953 69.3608 194.74 70.4046 196.583 72.4811C198.438 74.5576 199.359 77.5446 199.359 81.4312V83.2856H192.231V80.9537C192.231 79.2214 191.897 77.9888 191.231 77.2892C190.565 76.5786 189.643 76.2232 188.455 76.2232C187.267 76.2232 186.334 76.5786 185.679 77.2892C185.013 77.9999 184.68 79.2214 184.68 80.9537C184.68 82.5971 185.046 84.0518 185.779 85.3066C186.512 86.5613 187.422 87.7495 188.522 88.871C189.621 89.9926 190.798 91.1141 192.053 92.2356C193.308 93.3572 194.485 94.5787 195.584 95.9001C196.683 97.2215 197.594 98.7317 198.327 100.431C199.06 102.118 199.426 104.106 199.426 106.394C199.426 110.28 198.482 113.267 196.583 115.344C194.685 117.42 191.886 118.464 188.189 118.464C184.491 118.464 181.681 117.42 179.783 115.344C177.884 113.267 176.94 110.28 176.94 106.394V103.107H184.069V106.882C184.069 108.615 184.424 109.836 185.135 110.513C185.846 111.202 186.789 111.546 187.978 111.546C189.166 111.546 190.11 111.202 190.82 110.513C191.531 109.825 191.886 108.615 191.886 106.882C191.886 105.239 191.52 103.784 190.787 102.529C190.054 101.275 189.144 100.086 188.044 98.9649C186.945 97.8433 185.768 96.7218 184.513 95.6003C183.258 94.4787 182.081 93.2572 180.982 91.9358C179.883 90.6144 178.972 89.1042 178.239 87.4053C177.506 85.7174 177.14 83.7297 177.14 81.4423L177.151 81.4312Z" fill="white"/>
<path d="M126.062 125.686H125.274V127.507H124.996V125.686H124.208V125.442H126.051V125.686H126.062Z" fill="white"/>
<path d="M127.463 127.516V128.271H127.185V127.516L126.264 125.429H126.563L127.33 127.194L128.118 125.429H128.396L127.474 127.516H127.463ZM126.508 127.383H128.129V127.583H126.508V127.383Z" fill="white"/>
<path d="M130.548 125.551C130.703 125.64 130.825 125.762 130.914 125.917C131.003 126.073 131.047 126.262 131.047 126.461C131.047 126.661 131.003 126.85 130.914 127.017C130.825 127.172 130.703 127.305 130.548 127.383C130.392 127.461 130.214 127.516 130.015 127.516C129.848 127.516 129.693 127.483 129.559 127.416C129.426 127.35 129.315 127.25 129.226 127.117V128.271H128.949V125.44H129.215V125.851C129.304 125.717 129.415 125.606 129.548 125.54C129.681 125.473 129.837 125.429 130.015 125.429C130.203 125.429 130.381 125.473 130.548 125.562V125.551ZM130.392 127.172C130.514 127.105 130.603 127.006 130.67 126.883C130.736 126.761 130.77 126.617 130.77 126.461C130.77 126.306 130.736 126.162 130.67 126.039C130.603 125.917 130.514 125.817 130.392 125.751C130.27 125.684 130.148 125.651 130.003 125.651C129.859 125.651 129.726 125.684 129.604 125.751C129.493 125.817 129.393 125.917 129.326 126.039C129.259 126.162 129.226 126.306 129.226 126.461C129.226 126.617 129.259 126.761 129.326 126.883C129.393 127.006 129.482 127.105 129.604 127.172C129.726 127.239 129.848 127.272 130.003 127.272C130.159 127.272 130.281 127.239 130.392 127.172Z" fill="white"/>
<path d="M132.137 126.484H133.047V126.684H132.137V127.494H131.859V126.684H131.582V126.484H131.859V125.429H133.325V125.673H132.137V126.484Z" fill="white"/>
<path d="M135.379 126.341C135.512 126.452 135.579 126.619 135.579 126.83C135.579 127.041 135.501 127.218 135.357 127.341C135.212 127.463 135.001 127.518 134.724 127.518H133.902V125.442H134.18V126.164H134.768C135.024 126.164 135.224 126.23 135.368 126.341H135.379ZM135.157 127.185C135.257 127.107 135.301 126.985 135.301 126.83C135.301 126.674 135.257 126.563 135.157 126.497C135.057 126.419 134.913 126.386 134.724 126.386H134.202V127.296H134.724C134.913 127.296 135.057 127.263 135.157 127.185ZM135.934 125.442H136.212V127.507H135.934V125.442Z" fill="white"/>
<path d="M137.142 125.429H137.42V126.35H138.719V125.429H138.997V127.494H138.719V126.584H137.42V127.494H137.142V125.429Z" fill="white"/>
<path d="M142.896 127.516V128.272H142.618V127.516L141.697 125.429H141.997L142.763 127.194L143.551 125.429H143.829L142.907 127.516H142.896Z" fill="white"/>
<path d="M144.675 125.428V127.072L146.052 125.428H146.296V127.494H146.018V125.85L144.641 127.494H144.386V125.428H144.675ZM144.908 124.995C144.808 124.906 144.753 124.784 144.741 124.618H144.941C144.941 124.718 144.986 124.806 145.052 124.862C145.119 124.929 145.219 124.951 145.33 124.951C145.441 124.951 145.53 124.918 145.608 124.862C145.674 124.795 145.719 124.718 145.719 124.618H145.918C145.918 124.784 145.863 124.906 145.752 124.995C145.641 125.084 145.508 125.128 145.33 125.128C145.152 125.128 145.008 125.084 144.908 124.995Z" fill="white"/>
<path d="M150.104 126.581H149.626V127.503H149.348V125.438H149.626V126.348H150.104L150.836 125.438H151.136L150.326 126.437L151.203 127.503H150.87L150.104 126.581Z" fill="white"/>
<path d="M153.512 126.549H151.78C151.791 126.76 151.88 126.937 152.024 127.07C152.169 127.204 152.357 127.27 152.591 127.27C152.724 127.27 152.835 127.248 152.946 127.204C153.057 127.159 153.146 127.093 153.223 127.004L153.379 127.182C153.29 127.293 153.168 127.37 153.035 127.437C152.901 127.492 152.746 127.526 152.579 127.526C152.368 127.526 152.18 127.481 152.013 127.392C151.847 127.304 151.724 127.182 151.624 127.015C151.536 126.859 151.491 126.671 151.491 126.471C151.491 126.271 151.536 126.082 151.624 125.927C151.713 125.771 151.835 125.638 151.991 125.549C152.146 125.46 152.313 125.416 152.513 125.416C152.713 125.416 152.879 125.46 153.024 125.549C153.168 125.638 153.29 125.76 153.379 125.916C153.468 126.071 153.512 126.26 153.512 126.46V126.549ZM152.013 125.838C151.88 125.96 151.802 126.127 151.78 126.338H153.246C153.223 126.138 153.146 125.971 153.012 125.838C152.879 125.705 152.713 125.649 152.502 125.649C152.291 125.649 152.135 125.716 152.002 125.838H152.013Z" fill="white"/>
<path d="M157.134 125.429V127.494H154.28V125.429H154.558V127.25H155.568V125.429H155.846V127.25H156.845V125.429H157.134Z" fill="white"/>
<path d="M159.875 126.549H158.143C158.154 126.76 158.243 126.937 158.387 127.07C158.532 127.204 158.721 127.27 158.954 127.27C159.087 127.27 159.198 127.248 159.309 127.204C159.42 127.159 159.509 127.093 159.587 127.004L159.742 127.182C159.653 127.293 159.531 127.37 159.398 127.437C159.265 127.492 159.109 127.526 158.943 127.526C158.732 127.526 158.543 127.481 158.376 127.392C158.21 127.304 158.088 127.182 157.988 127.015C157.899 126.859 157.854 126.671 157.854 126.471C157.854 126.271 157.899 126.082 157.988 125.927C158.077 125.771 158.199 125.638 158.354 125.549C158.51 125.46 158.676 125.416 158.876 125.416C159.076 125.416 159.243 125.46 159.387 125.549C159.531 125.638 159.653 125.76 159.742 125.916C159.831 126.071 159.875 126.26 159.875 126.46V126.549ZM158.376 125.838C158.243 125.96 158.165 126.127 158.143 126.338H159.609C159.587 126.138 159.509 125.971 159.376 125.838C159.243 125.705 159.076 125.649 158.865 125.649C158.654 125.649 158.499 125.716 158.365 125.838H158.376Z" fill="white"/>
<path d="M160.644 125.429H160.921V126.351H162.22V125.429H162.498V127.494H162.22V126.584H160.921V127.494H160.644V125.429Z" fill="white"/>
<path d="M163.427 124.916C163.427 124.916 163.372 124.827 163.372 124.772C163.372 124.716 163.394 124.672 163.427 124.639C163.472 124.594 163.516 124.583 163.572 124.583C163.627 124.583 163.683 124.605 163.716 124.639C163.749 124.672 163.772 124.727 163.772 124.772C163.772 124.827 163.749 124.883 163.716 124.916C163.672 124.961 163.627 124.972 163.572 124.972C163.516 124.972 163.461 124.95 163.427 124.916ZM163.427 125.427H163.705V127.492H163.427V125.427Z" fill="white"/>
<path d="M166.825 124.583H167.08V128.27H166.825V124.583Z" fill="white"/>
<path d="M172.002 126.581H171.558V127.503H171.28V126.581H170.836L170.203 127.503H169.87L170.614 126.437L169.925 125.437H170.225L170.836 126.348H171.28V125.437H171.558V126.348H172.002L172.612 125.437H172.912L172.224 126.448L172.968 127.514H172.635L172.002 126.592V126.581Z" fill="white"/>
<path d="M173.854 125.429V127.072L175.231 125.429H175.475V127.494H175.198V125.851L173.821 127.494H173.565V125.429H173.854Z" fill="white"/>
<path d="M178.118 125.427V127.492H177.841V125.671H176.852L176.83 126.182C176.808 126.615 176.763 126.948 176.686 127.17C176.608 127.392 176.464 127.515 176.264 127.515C176.208 127.515 176.142 127.515 176.064 127.481L176.086 127.237C176.086 127.237 176.164 127.248 176.186 127.248C176.297 127.248 176.375 127.204 176.43 127.104C176.486 127.004 176.519 126.882 176.541 126.737C176.564 126.593 176.575 126.393 176.586 126.16L176.619 125.416H178.129L178.118 125.427Z" fill="white"/>
<path d="M179.377 127.384C179.221 127.295 179.088 127.173 178.999 127.006C178.91 126.851 178.866 126.662 178.866 126.462C178.866 126.262 178.91 126.073 178.999 125.918C179.088 125.762 179.221 125.629 179.377 125.54C179.532 125.452 179.721 125.407 179.921 125.407C180.121 125.407 180.298 125.452 180.465 125.54C180.62 125.629 180.754 125.751 180.843 125.918C180.931 126.073 180.976 126.262 180.976 126.462C180.976 126.662 180.931 126.84 180.843 127.006C180.754 127.162 180.632 127.295 180.465 127.384C180.31 127.473 180.121 127.517 179.921 127.517C179.721 127.517 179.543 127.473 179.377 127.384ZM180.31 127.173C180.421 127.106 180.52 127.006 180.587 126.884C180.654 126.762 180.687 126.618 180.687 126.462C180.687 126.307 180.654 126.162 180.587 126.04C180.52 125.918 180.432 125.818 180.31 125.751C180.187 125.685 180.065 125.651 179.91 125.651C179.754 125.651 179.632 125.685 179.51 125.751C179.388 125.818 179.299 125.918 179.232 126.04C179.166 126.162 179.132 126.307 179.132 126.462C179.132 126.618 179.166 126.762 179.232 126.884C179.299 127.006 179.388 127.106 179.51 127.173C179.621 127.239 179.754 127.273 179.91 127.273C180.065 127.273 180.187 127.239 180.31 127.173Z" fill="white"/>
<path d="M181.983 125.428V127.072L183.36 125.428H183.604V127.494H183.326V125.85L181.949 127.494H181.694V125.428H181.983ZM182.216 124.995C182.116 124.906 182.061 124.784 182.049 124.618H182.249C182.249 124.718 182.294 124.806 182.36 124.862C182.427 124.929 182.527 124.951 182.638 124.951C182.749 124.951 182.838 124.918 182.916 124.862C182.982 124.795 183.027 124.718 183.027 124.618H183.226C183.226 124.784 183.171 124.906 183.06 124.995C182.949 125.084 182.816 125.128 182.638 125.128C182.46 125.128 182.316 125.084 182.216 124.995Z" fill="white"/>
<path d="M187.411 126.585H186.934V127.507H186.656V125.442H186.934V126.352H187.411L188.144 125.442H188.444L187.633 126.441L188.511 127.507H188.178L187.411 126.585Z" fill="white"/>
<path d="M189.332 127.384C189.176 127.295 189.043 127.173 188.954 127.006C188.865 126.851 188.821 126.662 188.821 126.462C188.821 126.262 188.865 126.073 188.954 125.918C189.043 125.762 189.176 125.629 189.332 125.54C189.487 125.451 189.676 125.407 189.876 125.407C190.076 125.407 190.253 125.451 190.42 125.54C190.575 125.629 190.708 125.751 190.797 125.918C190.886 126.073 190.931 126.262 190.931 126.462C190.931 126.662 190.886 126.84 190.797 127.006C190.708 127.162 190.586 127.295 190.42 127.384C190.264 127.472 190.076 127.517 189.876 127.517C189.676 127.517 189.498 127.472 189.332 127.384ZM190.264 127.173C190.375 127.106 190.475 127.006 190.542 126.884C190.609 126.762 190.642 126.617 190.642 126.462C190.642 126.307 190.609 126.162 190.542 126.04C190.475 125.918 190.386 125.818 190.264 125.751C190.142 125.685 190.02 125.651 189.865 125.651C189.709 125.651 189.587 125.685 189.465 125.751C189.343 125.818 189.254 125.918 189.187 126.04C189.121 126.162 189.087 126.307 189.087 126.462C189.087 126.617 189.121 126.762 189.187 126.884C189.254 127.006 189.343 127.106 189.465 127.173C189.576 127.239 189.709 127.273 189.865 127.273C190.02 127.273 190.142 127.239 190.264 127.173Z" fill="white"/>
<path d="M193.973 125.429V127.494H193.718V125.862L192.885 127.25H192.763L191.93 125.862V127.505H191.675V125.44H191.964L192.841 126.928L193.729 125.44H193.985L193.973 125.429Z" fill="white"/>
<path d="M196.774 125.429V127.494H196.496V125.673H195.197V127.494H194.919V125.429H196.774Z" fill="white"/>
<path d="M199.394 125.431V127.497H199.117V125.675H198.128L198.106 126.186C198.084 126.619 198.039 126.952 197.962 127.175C197.884 127.397 197.74 127.519 197.54 127.519C197.484 127.519 197.418 127.519 197.34 127.485L197.362 127.241C197.362 127.241 197.44 127.252 197.462 127.252C197.573 127.252 197.651 127.208 197.706 127.108C197.762 127.008 197.795 126.886 197.817 126.741C197.84 126.597 197.851 126.397 197.862 126.164L197.895 125.42H199.405L199.394 125.431Z" fill="white"/>
<path d="M202.146 126.553H200.413C200.424 126.764 200.513 126.941 200.658 127.075C200.802 127.208 200.991 127.274 201.224 127.274C201.357 127.274 201.468 127.252 201.579 127.208C201.69 127.163 201.779 127.097 201.857 127.008L202.012 127.186C201.923 127.297 201.801 127.374 201.668 127.441C201.535 127.497 201.379 127.53 201.213 127.53C201.002 127.53 200.813 127.485 200.646 127.397C200.48 127.308 200.358 127.186 200.258 127.019C200.169 126.864 200.125 126.675 200.125 126.475C200.125 126.275 200.169 126.086 200.258 125.931C200.347 125.775 200.469 125.642 200.624 125.553C200.78 125.464 200.946 125.42 201.146 125.42C201.346 125.42 201.513 125.464 201.657 125.553C201.801 125.642 201.923 125.764 202.012 125.92C202.101 126.075 202.146 126.264 202.146 126.464V126.553ZM200.646 125.842C200.513 125.964 200.436 126.131 200.413 126.342H201.879C201.857 126.142 201.779 125.975 201.646 125.842C201.513 125.709 201.346 125.653 201.135 125.653C200.924 125.653 200.769 125.72 200.635 125.842H200.646Z" fill="white"/>
<path d="M203.656 126.585H203.178V127.507H202.901V125.442H203.178V126.352H203.656L204.389 125.442H204.688L203.878 126.441L204.755 127.507H204.422L203.656 126.585Z" fill="white"/>
<path d="M205.576 127.384C205.409 127.295 205.287 127.173 205.198 127.006C205.11 126.84 205.065 126.662 205.065 126.462C205.065 126.262 205.11 126.073 205.198 125.918C205.287 125.762 205.42 125.629 205.576 125.54C205.742 125.451 205.92 125.407 206.12 125.407C206.298 125.407 206.453 125.44 206.598 125.507C206.742 125.574 206.853 125.674 206.931 125.807L206.72 125.951C206.653 125.851 206.564 125.773 206.464 125.718C206.364 125.662 206.242 125.64 206.12 125.64C205.976 125.64 205.831 125.674 205.72 125.74C205.609 125.807 205.509 125.907 205.443 126.029C205.376 126.151 205.343 126.295 205.343 126.451C205.343 126.606 205.376 126.751 205.443 126.873C205.509 126.995 205.598 127.084 205.72 127.15C205.842 127.217 205.976 127.25 206.12 127.25C206.242 127.25 206.353 127.228 206.464 127.173C206.564 127.128 206.653 127.05 206.72 126.939L206.931 127.084C206.853 127.217 206.742 127.317 206.598 127.384C206.453 127.45 206.298 127.484 206.12 127.484C205.92 127.484 205.731 127.439 205.576 127.35V127.384Z" fill="white"/>
<path d="M78.9923 102.407V69.3387H98.4803C99.0688 69.3164 101.101 69.3387 102.922 70.7933C105.443 72.8143 105.443 75.9013 105.432 76.2899V96.9329C105.387 97.2993 105.076 99.4313 103.144 100.797C101.701 101.819 100.179 101.819 99.6907 101.797C99.6907 94.2456 99.7018 86.6947 99.7129 79.1438C99.7129 78.8884 99.6685 77.2116 98.2582 76.0012C96.9368 74.8575 95.3822 74.9796 95.1157 75.013H84.7665C84.7665 86.1839 84.7887 97.3548 84.7998 108.526C84.4001 108.504 81.9349 108.293 80.2915 106.172C79.0922 104.639 79.0145 102.974 79.0145 102.418" fill="white"/>
<path d="M95.8034 84.8398V117.908H76.3154C75.7268 117.931 73.6948 117.908 71.8736 116.454C69.353 114.433 69.353 111.346 69.3641 110.957V90.3142C69.4085 89.9478 69.7194 87.8158 71.6516 86.4499C73.0951 85.4283 74.6164 85.4283 75.105 85.4505C75.105 93.0015 75.0939 100.552 75.0939 108.103C75.0939 108.359 75.1383 110.035 76.5486 111.246C77.87 112.39 79.4246 112.267 79.6911 112.234H90.0403C90.0403 101.063 90.0181 89.8923 90.007 78.7213C90.4067 78.7435 92.8719 78.9545 94.5153 81.0754C95.7146 82.6078 95.7923 84.2735 95.7923 84.8287" fill="white"/>
<path d="M106.796 126.771H66.7984C61.968 126.771 58.0371 122.84 58.0371 118.01V68.9957C58.0371 64.1653 61.968 60.2344 66.7984 60.2344H106.796C111.627 60.2344 115.557 64.1653 115.557 68.9957V118.021C115.557 122.852 111.627 126.783 106.796 126.783V126.771ZM66.7984 64.6761C64.4221 64.6761 62.4788 66.6082 62.4788 68.9957V118.021C62.4788 120.398 64.411 122.341 66.7984 122.341H106.796C109.172 122.341 111.116 120.409 111.116 118.021V68.9957C111.116 66.6194 109.184 64.6761 106.796 64.6761H66.7984Z" fill="white"/>
</g>
<defs>
<filter id="filter0_dddd_116_5457" x="0.0371094" y="0.234375" width="264.894" height="184.037" filterUnits="userSpaceOnUse" color-interpolation-filters="sRGB">
<feFlood flood-opacity="0" result="BackgroundImageFix"/>
<feColorMatrix in="SourceAlpha" type="matrix" values="0 0 0 0 0 0 0 0 0 0 0 0 0 0 0 0 0 0 127 0" result="hardAlpha"/>
<feOffset dy="-0.133002"/>
<feGaussianBlur stdDeviation="1.92853"/>
<feColorMatrix type="matrix" values="0 0 0 0 0 0 0 0 0 0 0 0 0 0 0 0 0 0 0.0242336 0"/>
<feBlend mode="normal" in2="BackgroundImageFix" result="effect1_dropShadow_116_5457"/>
<feColorMatrix in="SourceAlpha" type="matrix" values="0 0 0 0 0 0 0 0 0 0 0 0 0 0 0 0 0 0 127 0" result="hardAlpha"/>
<feOffset dy="-0.446726"/>
<feGaussianBlur stdDeviation="6.47753"/>
<feColorMatrix type="matrix" values="0 0 0 0 0 0 0 0 0 0 0 0 0 0 0 0 0 0 0.0357664 0"/>
<feBlend mode="normal" in2="effect1_dropShadow_116_5457" result="effect2_dropShadow_116_5457"/>
<feColorMatrix in="SourceAlpha" type="matrix" values="0 0 0 0 0 0 0 0 0 0 0 0 0 0 0 0 0 0 127 0" result="hardAlpha"/>
<feOffset dy="-2"/>
<feGaussianBlur stdDeviation="29"/>
<feColorMatrix type="matrix" values="0 0 0 0 0 0 0 0 0 0 0 0 0 0 0 0 0 0 0.06 0"/>
<feBlend mode="normal" in2="effect2_dropShadow_116_5457" result="effect3_dropShadow_116_5457"/>
<feColorMatrix in="SourceAlpha" type="matrix" values="0 0 0 0 0 0 0 0 0 0 0 0 0 0 0 0 0 0 127 0" result="hardAlpha"/>
<feOffset dy="4"/>
<feGaussianBlur stdDeviation="2"/>
<feComposite in2="hardAlpha" operator="out"/>
<feColorMatrix type="matrix" values="0 0 0 0 0 0 0 0 0 0 0 0 0 0 0 0 0 0 0.15 0"/>
<feBlend mode="normal" in2="effect3_dropShadow_116_5457" result="effect4_dropShadow_116_5457"/>
<feBlend mode="normal" in="SourceGraphic" in2="effect4_dropShadow_116_5457" result="shape"/>
</filter>
</defs>
</svg>
