<svg width="41" height="42" viewBox="0 0 41 42" fill="none" xmlns="http://www.w3.org/2000/svg">
<path d="M38.9572 0.503873H2.04402C1.13568 0.470445 0.156513 1.33011 0.174061 2.37375V15.5047C0.174061 15.8336 0.440608 16.1002 0.769563 16.1002C1.09852 16.1002 1.36507 15.8336 1.36507 15.5047V2.41877L19.9051 18.7766V34.0847C19.9051 34.4135 20.1716 34.6802 20.5006 34.6802C20.8295 34.6802 21.0961 34.4135 21.0961 34.0847V19.1034H39.636V39.287C39.636 39.6614 39.3315 39.9659 38.9572 39.9659H21.0961V36.9069C21.0961 36.578 20.8295 36.3114 20.5006 36.3114C20.1716 36.3114 19.9051 36.578 19.9051 36.9069V39.9659H2.04394C1.66957 39.9659 1.36507 39.6614 1.36507 39.287V18.5079C1.36507 18.179 1.09852 17.9124 0.769563 17.9124C0.440608 17.9124 0.174061 18.179 0.174061 18.5079V39.287C0.174061 40.3181 1.01285 41.1569 2.04394 41.1569H38.9572C39.9882 41.1569 40.827 40.3181 40.827 39.287V2.37375C40.827 1.34266 39.9883 0.503873 38.9572 0.503873ZM39.636 2.37375V16.5426L35.0847 9.7213C34.9021 9.44769 34.5323 9.37393 34.2589 9.55647C33.9854 9.73901 33.9115 10.1088 34.0941 10.3823L35.2848 12.1669H29.2094L25.4238 7.56503H32.2143L32.5523 8.0716C32.7349 8.34521 33.1046 8.41898 33.3782 8.23644C33.6517 8.05389 33.7256 7.68413 33.5429 7.41059L29.7293 1.6948H38.9571C39.3315 1.69488 39.636 1.99938 39.636 2.37375ZM27.3281 17.9124L22.8738 13.3579H28.647L32.3936 17.9124H27.3281ZM21.709 12.1669L17.2082 7.56503H23.8815L27.6672 12.1669H21.709ZM8.99806 7.56511H15.5422L20.0429 12.167H14.2139L8.99806 7.56511ZM19.0525 1.69488L22.9018 6.3741H16.0434L11.4671 1.69488H19.0525ZM31.4196 6.3741H24.444L20.5947 1.69488H28.2975L31.4196 6.3741ZM9.80112 1.69488L14.3774 6.3741H7.64825L2.34479 1.69488H9.80112ZM20.7257 17.9124L15.5637 13.3579H21.2078L25.6621 17.9124H20.7257ZM33.9358 17.9124L30.1891 13.3579H36.0795L39.1184 17.9124H33.9358Z" fill="white"/>
</svg>
